{
  "asset": {
    "generator": "Khronos glTF Blender I/O v1.7.33",
    "version": "2.0"
  },
  "scene": 0,
  "scenes": [
    {
      "name": "Scene",
      "nodes": [
        0
      ]
    }
  ],
  "nodes": [
    {
      "mesh": 0,
      "name": "carved_wooden_elephant"
    }
  ],
  "materials": [
    {
      "doubleSided": true,
      "name": "carved_wooden_elephant",
      "normalTexture": {
        "index": 0
      },
      "pbrMetallicRoughness": {
        "baseColorTexture": {
          "index": 1
        },
        "metallicFactor": 0,
        "metallicRoughnessTexture": {
          "index": 2
        }
      }
    }
  ],
  "meshes": [
    {
      "name": "elephant_orig.002",
      "primitives": [
        {
          "attributes": {
            "POSITION": 0,
            "NORMAL": 1,
            "TEXCOORD_0": 2
          },
          "indices": 3,
          "material": 0
        }
      ]
    }
  ],
  "textures": [
    {
      "sampler": 0,
      "source": 0
    },
    {
      "sampler": 0,
      "source": 1
    },
    {
      "sampler": 0,
      "source": 2
    }
  ],
  "images": [
    {
      "mimeType": "image/jpeg",
      "name": "carved_wooden_elephant_nor_gl.png",
      "uri": "textures/carved_wooden_elephant_nor_gl_4k.jpg"
    },
    {
      "mimeType": "image/jpeg",
      "name": "carved_wooden_elephant_diff",
      "uri": "textures/carved_wooden_elephant_diff_4k.jpg"
    },
    {
      "mimeType": "image/jpeg",
      "name": "carved_wooden_elephant_rough.png",
      "uri": "textures/carved_wooden_elephant_rough_4k.jpg"
    }
  ],
  "accessors": [
    {
      "bufferView": 0,
      "componentType": 5126,
      "count": 1664,
      "max": [
        0.04761305823922157,
        0.0955449566245079,
        0.033036794513463974
      ],
      "min": [
        -0.061569906771183014,
        -0.0006055744597688317,
        -0.02451971173286438
      ],
      "type": "VEC3"
    },
    {
      "bufferView": 1,
      "componentType": 5126,
      "count": 1664,
      "type": "VEC3"
    },
    {
      "bufferView": 2,
      "componentType": 5126,
      "count": 1664,
      "type": "VEC2"
    },
    {
      "bufferView": 3,
      "componentType": 5123,
      "count": 8256,
      "type": "SCALAR"
    }
  ],
  "bufferViews": [
    {
      "buffer": 0,
      "byteLength": 19968,
      "byteOffset": 0
    },
    {
      "buffer": 0,
      "byteLength": 19968,
      "byteOffset": 19968
    },
    {
      "buffer": 0,
      "byteLength": 13312,
      "byteOffset": 39936
    },
    {
      "buffer": 0,
      "byteLength": 16512,
      "byteOffset": 53248
    }
  ],
  "samplers": [
    {
      "magFilter": 9729,
      "minFilter": 9987
    }
  ],
  "buffers": [
    {
      "byteLength": 69760,
      "uri": "carved_wooden_elephant.bin"
    }
  ]
}